<?xml version="1.0" encoding="UTF-8"?>
<?xml-stylesheet type="text/css" href= '/Users/nolan/Rpackages/SVGAnnotation/CSS/RSVGPlot.css'?>
<svg xmlns="http://www.w3.org/2000/svg" xmlns:xlink="http://www.w3.org/1999/xlink" width="504pt" height="504pt" viewBox="0 0 504 504" version="1.1">
  <r:display xmlns:r="http://www.r-project.org" usr="-125.149569508931,-66.5391893411664,24.8825448928833,49.6306158126831"><![CDATA[map("state", fill = TRUE, col = c("red", "blue")[obama.won[stateNames] + 
    1])]]></r:display>
  <defs>
    <clipPath id="clip1">
      <path d="M 30.238281 134.835938 L 474.757812 134.835938 L 474.757812 370.167969 L 30.238281 370.167969 Z M 30.238281 134.835938 "/>
    </clipPath>
  </defs>
  <g id="surface0">
    <rect x="0" y="0" width="504" height="504" style="fill: rgb(100%,100%,100%); fill-opacity: 1; stroke: none;"/>
    <g clip-path="url(#clip1)" clip-rule="nonzero" type="plot-region">
      <a xlink:title="alabama">
        <path style="fill-rule: nonzero; fill: rgb(100%,0%,0%); fill-opacity: 1;stroke-width: 0.75; stroke-linecap: round; stroke-linejoin: round; stroke: rgb(0%,0%,0%); stroke-opacity: 1;stroke-miterlimit: 10; " d="M 315.429688 317.019531 L 315.429688 317.019531 L 312.875 317.996094 L 311.007812 313.546875 L 309.925781 317.34375 L 308.40625 316.804688 L 308.105469 298.847656 L 310.097656 273.835938 L 329.4375 273.566406 L 330.085938 277.308594 L 330.519531 280.347656 L 332.210938 291.195312 L 334.640625 299.117188 L 333.597656 300.636719 L 333.425781 306.710938 L 333.816406 310.890625 L 314.347656 311.648438 L 315.214844 313.875 L 315.429688 317.019531 Z M 315.429688 317.019531 " type="plot-point" id="alabama" xlink:title="alabama">
          <title>alabama</title>
        </path>
      </a>
      <a xlink:title="arizona">
        <path style="fill-rule: nonzero; fill: rgb(100%,0%,0%); fill-opacity: 1;stroke-width: 0.75; stroke-linecap: round; stroke-linejoin: round; stroke: rgb(0%,0%,0%); stroke-opacity: 1;stroke-miterlimit: 10; " d="M 109.789062 273.183594 L 109.789062 273.183594 L 109.441406 267.054688 L 109.3125 262.769531 L 112.257812 263.472656 L 113.992188 262.605469 L 114.296875 254.46875 L 152.148438 254.46875 L 152.019531 307.90625 L 150.675781 307.90625 L 147.726562 307.960938 L 142.21875 307.90625 L 137.40625 307.960938 L 108.488281 296.894531 L 109.660156 294.777344 L 111.003906 292.933594 L 109.226562 291.035156 L 109.789062 287.722656 L 110.527344 283.546875 L 113.171875 280.507812 L 112.433594 278.828125 L 109.789062 273.183594 Z M 109.789062 273.183594 " type="plot-point" id="arizona" xlink:title="arizona">
          <title>arizona</title>
        </path>
      </a>
      <a xlink:title="arkansas">
        <path style="fill-rule: nonzero; fill: rgb(100%,0%,0%); fill-opacity: 1;stroke-width: 0.75; stroke-linecap: round; stroke-linejoin: round; stroke: rgb(0%,0%,0%); stroke-opacity: 1;stroke-miterlimit: 10; " d="M 265.570312 291.957031 L 265.570312 291.957031 L 265.050781 286.695312 L 264.226562 286.640625 L 262.882812 286.855469 L 262.230469 283.167969 L 262.144531 266.132812 L 261.234375 259.078125 L 295.183594 259.40625 L 295.183594 261.847656 L 293.96875 263.90625 L 298.871094 264.613281 L 296.875 267.054688 L 295.703125 269.441406 L 294.835938 269.441406 L 295.574219 272.316406 L 294.230469 273.726562 L 294.316406 273.890625 L 292.625 275.679688 L 292.582031 276.601562 L 292.191406 277.523438 L 289.722656 280.5625 L 289.9375 280.996094 L 289.242188 281.214844 L 288.59375 283.003906 L 287.597656 285.28125 L 287.25 285.445312 L 287.25 287.777344 L 287.292969 288.59375 L 287.941406 288.539062 L 287.8125 289.949219 L 287.640625 291.738281 L 265.570312 291.957031 Z M 265.570312 291.957031 " type="plot-point" id="arkansas" xlink:title="arkansas">
          <title>arkansas</title>
        </path>
      </a>
      <a xlink:title="california">
        <path style="fill-rule: nonzero; fill: rgb(0%,0%,100%); fill-opacity: 1;stroke-width: 0.75; stroke-linecap: round; stroke-linejoin: round; stroke: rgb(0%,0%,0%); stroke-opacity: 1;stroke-miterlimit: 10; " d="M 69.164062 207 L 69.164062 207 L 69.25 235.589844 L 109.789062 273.183594 L 112.433594 278.828125 L 113.171875 280.507812 L 110.527344 283.546875 L 109.789062 287.722656 L 109.226562 291.035156 L 111.003906 292.933594 L 109.660156 294.777344 L 91.058594 296.132812 L 91.144531 295.699219 L 89.972656 293.691406 L 88.628906 289.351562 L 82.558594 284.957031 L 81.5625 285.066406 L 80.304688 282.460938 L 78.832031 282.460938 L 75.277344 280.671875 L 71.722656 278.882812 L 65.433594 277.578125 L 64.785156 276.332031 L 64.261719 271.613281 L 62.960938 270.09375 L 60.015625 266.890625 L 54.898438 259.515625 L 55.203125 257.886719 L 55.59375 255.28125 L 54.421875 254.738281 L 54.292969 254.632812 L 52.46875 253.925781 L 50.910156 250.183594 L 50.953125 246.710938 L 51.34375 247.632812 L 54.03125 250.074219 L 51.558594 245.625 L 52.425781 244.378906 L 50.867188 243.617188 L 50.996094 246.058594 L 47.09375 244.433594 L 46.789062 242.859375 L 41.628906 236.566406 L 40.980469 233.960938 L 40.761719 229.1875 L 36.644531 223.546875 L 36.429688 220.128906 L 38.507812 213.292969 L 37.425781 207.648438 L 40.113281 207 L 69.164062 207 Z M 69.164062 207 " type="plot-point" id="california" xlink:title="california">
          <title>california</title>
        </path>
      </a>
      <a xlink:title="colorado">
        <path style="fill-rule: nonzero; fill: rgb(0%,0%,100%); fill-opacity: 1;stroke-width: 0.75; stroke-linecap: round; stroke-linejoin: round; stroke: rgb(0%,0%,0%); stroke-opacity: 1;stroke-miterlimit: 10; " d="M 205 225.933594 L 205 225.933594 L 204.480469 254.578125 L 164.113281 254.46875 L 152.148438 254.46875 L 152.0625 216.601562 L 160.601562 216.382812 L 204.957031 216.546875 L 205 225.933594 Z M 205 225.933594 " type="plot-point" id="colorado" xlink:title="colorado">
          <title>colorado</title>
        </path>
      </a>
      <a xlink:title="connecticut">
        <path style="fill-rule: nonzero; fill: rgb(0%,0%,100%); fill-opacity: 1;stroke-width: 0.75; stroke-linecap: round; stroke-linejoin: round; stroke: rgb(0%,0%,0%); stroke-opacity: 1;stroke-miterlimit: 10; " d="M 421.09375 206.617188 L 421.09375 206.617188 L 434.058594 207 L 433.625 213.292969 L 428.421875 214.105469 L 425.863281 214.160156 L 421.222656 216.113281 L 419.402344 215.515625 L 420.789062 214.703125 L 421.09375 206.617188 Z M 421.09375 206.617188 " type="plot-point" id="connecticut" xlink:title="connecticut">
          <title>connecticut</title>
        </path>
      </a>
      <a xlink:title="delaware">
        <path style="fill-rule: nonzero; fill: rgb(0%,0%,100%); fill-opacity: 1;stroke-width: 0.75; stroke-linecap: round; stroke-linejoin: round; stroke: rgb(0%,0%,0%); stroke-opacity: 1;stroke-miterlimit: 10; " d="M 403.664062 228.589844 L 403.664062 228.589844 L 406.523438 227.832031 L 405.269531 230.921875 L 407.566406 236.621094 L 407.914062 236.890625 L 409.125 237.703125 L 408.5625 239.332031 L 409.34375 240.144531 L 404.488281 240.582031 L 403.664062 228.589844 Z M 403.664062 228.589844 " type="plot-point" id="delaware" xlink:title="delaware">
          <title>delaware</title>
        </path>
      </a>
      <a xlink:title="district of columbia">
        <path style="fill: none; stroke-width: 0.75; stroke-linecap: round; stroke-linejoin: round; stroke: rgb(0%,0%,0%); stroke-opacity: 1;stroke-miterlimit: 10; " d="M 393.5625 236.023438 L 393.5625 236.023438 L 395.121094 236.511719 L 394.210938 237.324219 L 394.210938 237.109375 L 393.5625 236.023438 L 393.5625 236.023438 " type="plot-point" id="district of columbia" xlink:title="district of columbia"/>
      </a>
      <a xlink:title="florida">
        <path style="fill-rule: nonzero; fill: rgb(0%,0%,100%); fill-opacity: 1;stroke-width: 0.75; stroke-linecap: round; stroke-linejoin: round; stroke: rgb(0%,0%,0%); stroke-opacity: 1;stroke-miterlimit: 10; " d="M 333.945312 311.269531 L 333.945312 311.269531 L 335.074219 313.929688 L 355.148438 316.042969 L 356.402344 317.292969 L 357.054688 313.058594 L 360.785156 314.851562 L 364.382812 328.25 L 365.507812 332.210938 L 371.578125 352.121094 L 370.320312 360.910156 L 368.328125 365.847656 L 367.375 365.847656 L 363.339844 366.550781 L 363.558594 365.195312 L 364.859375 365.414062 L 362.429688 362.484375 L 359.699219 359.390625 L 358.398438 358.578125 L 357.011719 353.964844 L 356.058594 349.734375 L 354.929688 349.515625 L 354.972656 350.765625 L 351.808594 344.089844 L 353.671875 340.183594 L 352.675781 340.621094 L 351.417969 339.859375 L 351.9375 341.648438 L 351.9375 341.757812 L 350.898438 341.109375 L 350.898438 337.636719 L 351.546875 331.503906 L 351.15625 329.660156 L 349.378906 328.414062 L 344.222656 321.6875 L 340.449219 319.839844 L 338.539062 320.980469 L 331.648438 323.476562 L 330.648438 322.175781 L 330.996094 323.097656 L 331.605469 322.609375 L 328.871094 319.625 L 330.128906 320.003906 L 328.742188 318.539062 L 327.832031 317.832031 L 328.351562 318.757812 L 322.628906 316.476562 L 324.925781 316.585938 L 325.011719 315.988281 L 318.335938 316.910156 L 318.769531 316.476562 L 318.554688 315.390625 L 317.511719 315.5 L 315.386719 317.34375 L 315.648438 315.175781 L 314.78125 313.386719 L 314.347656 311.160156 L 333.945312 311.269531 Z M 333.945312 311.269531 " type="plot-point" id="florida" xlink:title="florida">
          <title>florida</title>
        </path>
      </a>
      <a xlink:title="georgia">
        <path style="fill-rule: nonzero; fill: rgb(100%,0%,0%); fill-opacity: 1;stroke-width: 0.75; stroke-linecap: round; stroke-linejoin: round; stroke: rgb(0%,0%,0%); stroke-opacity: 1;stroke-miterlimit: 10; " d="M 365.164062 301.394531 L 365.164062 301.394531 L 364.035156 302.859375 L 363.296875 304.707031 L 362.734375 306.167969 L 360.957031 309.316406 L 360.523438 310.238281 L 361.128906 310.238281 L 360.132812 313.929688 L 356.578125 313.222656 L 355.839844 317.292969 L 355.148438 315.390625 L 334.507812 313.277344 L 333.207031 309.585938 L 333.164062 304.757812 L 334.421875 299.605469 L 333.683594 296.511719 L 329.4375 273.566406 L 339.191406 273.457031 L 348.167969 273.402344 L 346.519531 275.789062 L 349.164062 278.230469 L 351.070312 280.402344 L 357.269531 288.210938 L 359.570312 291.46875 L 361.214844 294.777344 L 362.820312 297.21875 L 363.125 300.039062 L 365.164062 301.394531 Z M 365.164062 301.394531 " type="plot-point" id="georgia" xlink:title="georgia">
          <title>georgia</title>
        </path>
      </a>
      <a xlink:title="idaho">
        <path style="fill-rule: nonzero; fill: rgb(100%,0%,0%); fill-opacity: 1;stroke-width: 0.75; stroke-linecap: round; stroke-linejoin: round; stroke: rgb(0%,0%,0%); stroke-opacity: 1;stroke-miterlimit: 10; " d="M 91.707031 207 L 91.707031 207 L 92.273438 188.554688 L 92.273438 186.058594 L 90.234375 184.753906 L 95.914062 172.550781 L 92.273438 168.589844 L 91.75 140.867188 L 99.164062 140.867188 L 99.253906 150.6875 L 101.679688 154.375 L 101.464844 155.730469 L 107.578125 160.613281 L 108.921875 162.675781 L 112.042969 162.945312 L 110.785156 167.722656 L 111.523438 169.457031 L 111.089844 170.648438 L 110.351562 172.765625 L 112.085938 174.339844 L 115.121094 172.0625 L 118.851562 179.003906 L 119.457031 180.46875 L 120.453125 180.359375 L 122.96875 184.265625 L 124.3125 183.34375 L 126.351562 183.617188 L 127.175781 183.074219 L 131.207031 183.183594 L 132.335938 182.910156 L 133.679688 182.964844 L 134.023438 181.285156 L 136.367188 183.34375 L 136.929688 207.105469 L 91.707031 207 Z M 91.707031 207 " type="plot-point" id="idaho" xlink:title="idaho">
          <title>idaho</title>
        </path>
      </a>
      <a xlink:title="illinois">
        <path style="fill-rule: nonzero; fill: rgb(0%,0%,100%); fill-opacity: 1;stroke-width: 0.75; stroke-linecap: round; stroke-linejoin: round; stroke: rgb(0%,0%,0%); stroke-opacity: 1;stroke-miterlimit: 10; " d="M 291.367188 202.277344 L 291.367188 202.277344 L 312.875 202.984375 L 313.308594 205.914062 L 314.910156 209.546875 L 314.304688 233.691406 L 314.78125 238.464844 L 311.964844 242.207031 L 310.75 246.546875 L 310.574219 249.261719 L 307.496094 251.539062 L 307.582031 253.65625 L 303.074219 252.625 L 302.292969 254.144531 L 301.644531 253.871094 L 300.214844 251.269531 L 300.515625 250.996094 L 299.996094 248.285156 L 293.40625 242.914062 L 294.878906 237.652344 L 294.402344 236.238281 L 291.933594 236.726562 L 290.933594 234.449219 L 287.421875 230.109375 L 285.125 225.933594 L 285.820312 221.320312 L 286.640625 220.128906 L 288.855469 217.199219 L 288.160156 213.292969 L 292.753906 211.445312 L 295.183594 207 L 291.367188 202.277344 Z M 291.367188 202.277344 " type="plot-point" id="illinois" xlink:title="illinois">
          <title>illinois</title>
        </path>
      </a>
      <a xlink:title="indiana">
        <path style="fill-rule: nonzero; fill: rgb(0%,0%,100%); fill-opacity: 1;stroke-width: 0.75; stroke-linecap: round; stroke-linejoin: round; stroke: rgb(0%,0%,0%); stroke-opacity: 1;stroke-miterlimit: 10; " d="M 311.183594 246.925781 L 311.183594 246.925781 L 311.097656 245.460938 L 311.441406 243.074219 L 314.996094 237.378906 L 314.304688 233.691406 L 315.386719 210.035156 L 319.464844 209.765625 L 335.59375 209.820312 L 335.417969 236.511719 L 334.769531 237.597656 L 331.515625 237.921875 L 330.738281 239.441406 L 328.480469 242.371094 L 326.792969 244.867188 L 324.40625 243.617188 L 323.582031 243.835938 L 321.933594 246.167969 L 320.503906 245.136719 L 317.859375 246.601562 L 314.390625 245.898438 L 312.917969 246.003906 L 311.183594 246.925781 Z M 311.183594 246.925781 " type="plot-point" id="indiana" xlink:title="indiana">
          <title>indiana</title>
        </path>
      </a>
      <a xlink:title="iowa">
        <path style="fill-rule: nonzero; fill: rgb(0%,0%,100%); fill-opacity: 1;stroke-width: 0.75; stroke-linecap: round; stroke-linejoin: round; stroke: rgb(0%,0%,0%); stroke-opacity: 1;stroke-miterlimit: 10; " d="M 286.945312 192.894531 L 286.945312 192.894531 L 288.117188 195.335938 L 287.507812 197.667969 L 288.984375 200.433594 L 291.324219 202.277344 L 295.183594 207 L 292.753906 211.445312 L 288.160156 213.292969 L 288.855469 217.199219 L 286.640625 220.128906 L 285.820312 221.320312 L 285.515625 222.460938 L 283.347656 220.183594 L 279.792969 220.183594 L 252.605469 220.289062 L 251.828125 218.769531 L 252 218.335938 L 251.914062 215.625 L 249.917969 209.765625 L 246.582031 200.757812 L 247.273438 195.550781 L 246.40625 192.894531 L 247.578125 192.949219 L 250.484375 192.894531 L 286.945312 192.894531 Z M 286.945312 192.894531 " type="plot-point" id="iowa" xlink:title="iowa">
          <title>iowa</title>
        </path>
      </a>
      <a xlink:title="kansas">
        <path style="fill-rule: nonzero; fill: rgb(100%,0%,0%); fill-opacity: 1;stroke-width: 0.75; stroke-linecap: round; stroke-linejoin: round; stroke: rgb(0%,0%,0%); stroke-opacity: 1;stroke-miterlimit: 10; " d="M 261.148438 254.195312 L 261.148438 254.195312 L 205.042969 254.414062 L 205 225.933594 L 247.359375 225.988281 L 255.730469 225.878906 L 257.417969 227.234375 L 258.027344 227.125 L 259.242188 227.613281 L 257.808594 229.785156 L 259.199219 232.332031 L 261.105469 233.90625 L 261.148438 254.195312 Z M 261.148438 254.195312 " type="plot-point" id="kansas" xlink:title="kansas">
          <title>kansas</title>
        </path>
      </a>
      <a xlink:title="kentucky">
        <path style="fill-rule: nonzero; fill: rgb(100%,0%,0%); fill-opacity: 1;stroke-width: 0.75; stroke-linecap: round; stroke-linejoin: round; stroke: rgb(0%,0%,0%); stroke-opacity: 1;stroke-miterlimit: 10; " d="M 352.457031 240.90625 L 352.457031 240.90625 L 352.589844 244.269531 L 356.273438 249.316406 L 357.011719 249.316406 L 350.335938 255.011719 L 344.046875 258.375 L 310.964844 257.886719 L 310.878906 259.132812 L 300.734375 259.132812 L 301.558594 258.050781 L 302.554688 257.722656 L 302.769531 254.46875 L 303.683594 252.191406 L 307.929688 253.167969 L 307.972656 250.398438 L 310.574219 249.261719 L 310.617188 247.523438 L 311.703125 246.980469 L 311.964844 246.003906 L 313.785156 246.058594 L 314.390625 245.898438 L 317.859375 246.601562 L 319.464844 245.410156 L 321.546875 246.003906 L 323.0625 243.671875 L 324.015625 243.671875 L 325.402344 244.8125 L 327.136719 243.996094 L 330.171875 240.582031 L 330.605469 238.84375 L 334.074219 237.597656 L 334.769531 237.597656 L 335.417969 236.511719 L 335.417969 234.394531 L 336.589844 234.613281 L 337.761719 234.503906 L 339.886719 236.726562 L 346.777344 238.898438 L 349.769531 237.757812 L 352.457031 240.90625 Z M 352.457031 240.90625 " type="plot-point" id="kentucky" xlink:title="kentucky">
          <title>kentucky</title>
        </path>
      </a>
      <a xlink:title="louisiana">
        <path style="fill-rule: nonzero; fill: rgb(100%,0%,0%); fill-opacity: 1;stroke-width: 0.75; stroke-linecap: round; stroke-linejoin: round; stroke: rgb(0%,0%,0%); stroke-opacity: 1;stroke-miterlimit: 10; " d="M 265.570312 291.957031 L 265.570312 291.957031 L 287.03125 292.988281 L 287.855469 293.367188 L 287.898438 295.863281 L 288.464844 297.21875 L 287.769531 297 L 289.027344 299.171875 L 287.378906 300.363281 L 288.636719 300.527344 L 286.164062 303.78125 L 285.386719 305.519531 L 284.039062 308.71875 L 284.039062 311.269531 L 298.304688 311.59375 L 297.828125 315.445312 L 299.257812 318.972656 L 294.1875 317.183594 L 293.234375 319.734375 L 296.875 319.460938 L 298.609375 319.734375 L 297.570312 321.089844 L 299.257812 321.523438 L 300.34375 320.003906 L 302.121094 319.785156 L 302.207031 321.632812 L 299.214844 324.996094 L 301.339844 327.328125 L 301.773438 327.21875 L 303.507812 328.085938 L 302.207031 329.824219 L 301.125 330.203125 L 301.253906 329.117188 L 296.484375 325.644531 L 295.703125 327.4375 L 294.878906 329.0625 L 293.882812 328.03125 L 293.1875 327.871094 L 292.453125 327.273438 L 291.066406 328.847656 L 287.683594 327.707031 L 285.167969 324.832031 L 283.824219 323.367188 L 282.003906 322.609375 L 280.050781 323.152344 L 280.140625 324.019531 L 279.226562 324.667969 L 273.679688 323.097656 L 266.828125 322.824219 L 267.738281 320.546875 L 267.867188 317.671875 L 269.386719 311 L 267.261719 305.300781 L 265.875 301.882812 L 265.570312 291.957031 Z M 265.570312 291.957031 " type="plot-point" id="louisiana" xlink:title="louisiana">
          <title>louisiana</title>
        </path>
      </a>
      <a xlink:title="maine">
        <path style="fill-rule: nonzero; fill: rgb(0%,0%,100%); fill-opacity: 1;stroke-width: 0.75; stroke-linecap: round; stroke-linejoin: round; stroke: rgb(0%,0%,0%); stroke-opacity: 1;stroke-miterlimit: 10; " d="M 441.992188 196.800781 L 441.992188 196.800781 L 440.300781 192.785156 L 439.910156 175.371094 L 441.296875 176.074219 L 441.816406 174.71875 L 442.726562 174.71875 L 442.339844 173.308594 L 445.546875 169.566406 L 446.023438 165.984375 L 451.617188 157.414062 L 454.042969 155.40625 L 454.652344 156.597656 L 456.125 157.792969 L 461.503906 156.546875 L 464.40625 159.636719 L 464.535156 172.277344 L 467.136719 173.742188 L 467.398438 177.105469 L 469.652344 177.8125 L 469.351562 179.332031 L 469.21875 180.035156 L 469.957031 180.847656 L 467.960938 181.609375 L 467.355469 181.554688 L 466.445312 182.261719 L 465.792969 183.019531 L 464.492188 183.128906 L 463.0625 183.886719 L 462.324219 184.429688 L 461.890625 183.886719 L 459.289062 184.160156 L 458.25 185.191406 L 456.472656 185.136719 L 456.992188 184.429688 L 456.863281 183.996094 L 456.820312 183.183594 L 455.5625 183.886719 L 454.390625 187.632812 L 452.355469 188.390625 L 451.617188 188.933594 L 449.839844 189.257812 L 448.972656 190.558594 L 447.714844 189.582031 L 445.675781 191.644531 L 441.992188 196.800781 Z M 441.992188 196.800781 " type="plot-point" id="maine" xlink:title="maine">
          <title>maine</title>
        </path>
      </a>
      <a xlink:title="maryland">
        <path style="fill-rule: nonzero; fill: rgb(0%,0%,100%); fill-opacity: 1;stroke-width: 0.75; stroke-linecap: round; stroke-linejoin: round; stroke: rgb(0%,0%,0%); stroke-opacity: 1;stroke-miterlimit: 10; " d="M 389.183594 232.386719 L 389.183594 232.386719 L 387.578125 229.839844 L 384.371094 229.457031 L 382.113281 230.382812 L 380.859375 229.945312 L 375.742188 233.527344 L 375.699219 228.644531 L 403.664062 228.589844 L 404.488281 240.582031 L 409.039062 241.285156 L 408.304688 242.859375 L 407.003906 244.703125 L 402.96875 245.300781 L 403.835938 244.269531 L 403.144531 244.324219 L 403.488281 243.507812 L 402.578125 243.617188 L 402.96875 241.992188 L 402.101562 242.097656 L 401.019531 242.152344 L 400.195312 240.363281 L 400.367188 239.65625 L 401.539062 239.117188 L 400.757812 238.410156 L 399.761719 237.597656 L 400.886719 236.890625 L 400.976562 234.339844 L 400.5 234.882812 L 400.410156 234.882812 L 400.152344 234.125 L 402.882812 231.195312 L 402.277344 230.597656 L 401.320312 230.597656 L 399.15625 232.875 L 397.941406 232.984375 L 398.070312 233.582031 L 398.546875 235.15625 L 398.070312 237.433594 L 398.980469 241.175781 L 397.765625 240.90625 L 398.503906 242.152344 L 399.5 243.890625 L 398.503906 243.457031 L 395.511719 241.773438 L 394.773438 241.339844 L 394.039062 241.339844 L 392.128906 241.121094 L 395.121094 236.511719 L 393.5625 236.023438 L 390.785156 233.636719 L 389.183594 232.386719 Z M 389.183594 232.386719 " type="plot-point" id="maryland" xlink:title="maryland">
          <title>maryland</title>
        </path>
      </a>
      <a xlink:title="massachusetts">
        <path style="fill-rule: nonzero; fill: rgb(0%,0%,100%); fill-opacity: 1;stroke-width: 0.75; stroke-linecap: round; stroke-linejoin: round; stroke: rgb(0%,0%,0%); stroke-opacity: 1;stroke-miterlimit: 10; " d="M 444.160156 212.75 L 444.160156 212.75 L 441.472656 213.238281 L 441.6875 213.292969 L 442.292969 212.476562 L 443.550781 212.859375 L 444.160156 212.75 Z M 444.160156 212.75 " type="plot-point" id="massachusetts:marthas vineyard" xlink:title="massachusetts">
          <title>massachusetts</title>
        </path>
      </a>
      <a xlink:title="massachusetts">
        <path style="fill-rule: nonzero; fill: rgb(0%,0%,100%); fill-opacity: 1;stroke-width: 0.75; stroke-linecap: round; stroke-linejoin: round; stroke: rgb(0%,0%,0%); stroke-opacity: 1;stroke-miterlimit: 10; " d="M 421.09375 206.617188 L 421.09375 206.617188 L 422.742188 200.054688 L 438.523438 199.890625 L 441.210938 198.96875 L 441.816406 201.789062 L 439.691406 204.230469 L 442.683594 206.183594 L 442.683594 207.59375 L 445.027344 209.710938 L 447.195312 209.007812 L 447.367188 208.734375 L 446.761719 206.890625 L 447.324219 207 L 447.585938 210.46875 L 442.554688 211.394531 L 442.816406 209.820312 L 440.039062 211.5 L 438.003906 209.386719 L 437.09375 207.214844 L 421.09375 206.617188 Z M 421.09375 206.617188 " type="plot-point" id="massachusetts:main" xlink:title="massachusetts">
          <title>massachusetts</title>
        </path>
      </a>
      <a xlink:title="massachusetts">
        <path style="fill-rule: nonzero; fill: rgb(0%,0%,100%); fill-opacity: 1;stroke-width: 0.75; stroke-linecap: round; stroke-linejoin: round; stroke: rgb(0%,0%,0%); stroke-opacity: 1;stroke-miterlimit: 10; " d="M 447.109375 213.941406 L 447.109375 213.941406 L 447.628906 213.292969 L 447.800781 213.835938 L 447.929688 213.941406 L 445.980469 213.941406 L 447.109375 213.941406 Z M 447.109375 213.941406 " type="plot-point" id="massachusetts:nantucket" xlink:title="massachusetts">
          <title>massachusetts</title>
        </path>
      </a>
      <a xlink:title="michigan">
        <path style="fill-rule: nonzero; fill: rgb(0%,0%,100%); fill-opacity: 1;stroke-width: 0.75; stroke-linecap: round; stroke-linejoin: round; stroke: rgb(0%,0%,0%); stroke-opacity: 1;stroke-miterlimit: 10; " d="M 293.101562 163.921875 L 293.101562 163.921875 L 300.214844 161.15625 L 307.714844 156.980469 L 312.613281 155.1875 L 312.960938 156.058594 L 308.710938 159.3125 L 308.105469 161.863281 L 309.578125 161.046875 L 314.433594 161.699219 L 316.992188 164.519531 L 321.980469 164.898438 L 327.484375 162.730469 L 334.074219 162.511719 L 334.464844 164.738281 L 339.148438 164.898438 L 339.496094 165.007812 L 340.101562 166.960938 L 341.878906 169.023438 L 337.585938 169.023438 L 336.285156 169.890625 L 335.375 169.945312 L 329.828125 168.75 L 325.707031 169.511719 L 323.972656 170.976562 L 321.066406 172.441406 L 322.410156 170.488281 L 321.371094 170.648438 L 319.59375 171.898438 L 319.074219 170.8125 L 313.871094 177.539062 L 313.652344 175.859375 L 312.613281 175.371094 L 312.832031 172.875 L 310.53125 170.488281 L 297.089844 166.527344 L 293.101562 163.921875 Z M 293.101562 163.921875 " type="plot-point" id="michigan:north" xlink:title="michigan">
          <title>michigan</title>
        </path>
      </a>
      <a xlink:title="michigan">
        <path style="fill-rule: nonzero; fill: rgb(0%,0%,100%); fill-opacity: 1;stroke-width: 0.75; stroke-linecap: round; stroke-linejoin: round; stroke: rgb(0%,0%,0%); stroke-opacity: 1;stroke-miterlimit: 10; " d="M 345.824219 209.441406 L 345.824219 209.441406 L 335.59375 209.820312 L 320.9375 208.625 L 324.796875 201.953125 L 324.144531 195.390625 L 322.714844 191.15625 L 323.191406 188.660156 L 323.148438 187.304688 L 324.882812 182.476562 L 327.136719 178.949219 L 329.652344 177.59375 L 329.78125 180.199219 L 330.433594 179.222656 L 330.433594 180.742188 L 331.820312 175.804688 L 334.207031 174.71875 L 333.554688 172.875 L 334.984375 171.574219 L 338.84375 172.550781 L 339.320312 172.441406 L 340.015625 172.710938 L 345.261719 175.261719 L 346.820312 177.8125 L 346 178.027344 L 346.433594 179.925781 L 346.734375 183.617188 L 345.042969 186.058594 L 343.527344 188.066406 L 342.097656 189.855469 L 343.570312 191.644531 L 348.644531 187.957031 L 351.070312 188.066406 L 352.980469 195.824219 L 352.804688 200 L 351.679688 201.195312 L 350.722656 201.300781 L 348.121094 205.046875 L 345.824219 209.441406 Z M 345.824219 209.441406 " type="plot-point" id="michigan:south" xlink:title="michigan">
          <title>michigan</title>
        </path>
      </a>
      <a xlink:title="minnesota">
        <path style="fill-rule: nonzero; fill: rgb(0%,0%,100%); fill-opacity: 1;stroke-width: 0.75; stroke-linecap: round; stroke-linejoin: round; stroke: rgb(0%,0%,0%); stroke-opacity: 1;stroke-miterlimit: 10; " d="M 247.578125 192.949219 L 247.578125 192.949219 L 247.359375 175.316406 L 244.5 172.550781 L 246.582031 169.78125 L 245.714844 165.441406 L 243.589844 152.097656 L 242.203125 146.398438 L 241.8125 141.789062 L 241.550781 140.8125 L 257.203125 140.757812 L 257.59375 137.285156 L 259.933594 137.992188 L 261.363281 143.308594 L 267.566406 144.609375 L 267.695312 145.476562 L 274.113281 144.394531 L 276.453125 145.476562 L 276.324219 145.964844 L 277.667969 147.050781 L 278.96875 147.863281 L 280.441406 146.832031 L 281.265625 147.917969 L 284.386719 149.273438 L 288.550781 148.40625 L 290.066406 148.460938 L 297.828125 150.144531 L 299.5625 150.144531 L 293.535156 152.746094 L 279.011719 162.945312 L 278.882812 167.773438 L 277.015625 169.402344 L 274.242188 172.601562 L 275.890625 174.828125 L 275.023438 181.011719 L 280.355469 184.105469 L 286.339844 189.148438 L 286.6875 192.351562 L 247.578125 192.949219 Z M 247.578125 192.949219 " type="plot-point" id="minnesota" xlink:title="minnesota">
          <title>minnesota</title>
        </path>
      </a>
      <a xlink:title="mississippi">
        <path style="fill-rule: nonzero; fill: rgb(100%,0%,0%); fill-opacity: 1;stroke-width: 0.75; stroke-linecap: round; stroke-linejoin: round; stroke: rgb(0%,0%,0%); stroke-opacity: 1;stroke-miterlimit: 10; " d="M 309.925781 273.402344 L 309.925781 273.402344 L 310.097656 278.449219 L 307.929688 307.144531 L 307.929688 317.183594 L 307.238281 317.292969 L 303.378906 316.910156 L 300.648438 318.050781 L 299.171875 318.429688 L 297.699219 313.332031 L 298.089844 311.214844 L 294.1875 311.214844 L 284.039062 311.269531 L 284.386719 308.71875 L 285.386719 305.519531 L 286.164062 303.78125 L 288.464844 300.203125 L 287.378906 300.363281 L 289.242188 298.519531 L 287.769531 297 L 287.769531 296.785156 L 288.464844 297.21875 L 287.898438 295.863281 L 287.855469 293.367188 L 287.292969 293.257812 L 287.988281 290.707031 L 287.597656 288.484375 L 287.378906 287.617188 L 287.121094 285.390625 L 288.074219 285.445312 L 288.59375 283.003906 L 288.808594 281.378906 L 289.675781 281.378906 L 289.460938 280.890625 L 291.109375 279.207031 L 292.582031 276.058594 L 294.101562 273.402344 L 303.636719 273.457031 L 305.113281 273.402344 L 309.925781 273.402344 Z M 309.925781 273.402344 " type="plot-point" id="mississippi" xlink:title="mississippi">
          <title>mississippi</title>
        </path>
      </a>
      <a xlink:title="missouri">
        <path style="fill-rule: nonzero; fill: rgb(100%,0%,0%); fill-opacity: 1;stroke-width: 0.75; stroke-linecap: round; stroke-linejoin: round; stroke: rgb(0%,0%,0%); stroke-opacity: 1;stroke-miterlimit: 10; " d="M 252.695312 220.234375 L 252.695312 220.234375 L 283.996094 220.667969 L 285.339844 222.730469 L 285.253906 227.398438 L 290.933594 234.449219 L 291.933594 236.726562 L 294.402344 236.238281 L 294.878906 237.652344 L 293.40625 242.914062 L 299.996094 248.285156 L 300.214844 251.269531 L 301.644531 253.871094 L 303.117188 255.445312 L 302.335938 258.484375 L 301.558594 258.050781 L 300.734375 259.132812 L 299.734375 258.808594 L 299.171875 261.46875 L 298.871094 263.3125 L 293.96875 263.90625 L 295.183594 261.847656 L 295.183594 259.40625 L 261.234375 259.078125 L 261.105469 233.90625 L 257.898438 230.707031 L 259.199219 227.941406 L 258.027344 227.125 L 254.339844 223.4375 L 252.695312 220.234375 Z M 252.695312 220.234375 " type="plot-point" id="missouri" xlink:title="missouri">
          <title>missouri</title>
        </path>
      </a>
      <a xlink:title="montana">
        <path style="fill-rule: nonzero; fill: rgb(100%,0%,0%); fill-opacity: 1;stroke-width: 0.75; stroke-linecap: round; stroke-linejoin: round; stroke: rgb(0%,0%,0%); stroke-opacity: 1;stroke-miterlimit: 10; " d="M 189.914062 140.8125 L 189.914062 140.8125 L 189.867188 178.625 L 182.5 178.625 L 175.820312 178.625 L 174.996094 178.679688 L 161.6875 178.679688 L 160.734375 178.734375 L 136.972656 178.734375 L 136.367188 183.34375 L 134.023438 181.285156 L 133.679688 182.964844 L 132.335938 182.910156 L 131.207031 183.183594 L 127.175781 183.074219 L 126.351562 183.617188 L 124.3125 183.34375 L 122.96875 184.265625 L 120.453125 180.359375 L 119.457031 180.46875 L 118.851562 179.003906 L 115.121094 172.0625 L 112.085938 174.339844 L 110.351562 172.765625 L 110.871094 172.441406 L 110.699219 171.734375 L 111.78125 170.378906 L 110.828125 168.859375 L 112.171875 163.21875 L 108.921875 162.675781 L 107.578125 160.613281 L 101.464844 155.730469 L 101.679688 154.375 L 99.253906 150.6875 L 99.164062 140.867188 L 110.046875 140.921875 L 113.257812 140.867188 L 167.148438 140.867188 L 168.582031 140.8125 L 189.914062 140.8125 Z M 189.914062 140.8125 " type="plot-point" id="montana" xlink:title="montana">
          <title>montana</title>
        </path>
      </a>
      <a xlink:title="nebraska">
        <path style="fill-rule: nonzero; fill: rgb(100%,0%,0%); fill-opacity: 1;stroke-width: 0.75; stroke-linecap: round; stroke-linejoin: round; stroke: rgb(0%,0%,0%); stroke-opacity: 1;stroke-miterlimit: 10; " d="M 189.824219 197.558594 L 189.824219 197.558594 L 232.707031 198.371094 L 236.476562 199.566406 L 242.027344 199.621094 L 246.015625 201.734375 L 247.75 203.472656 L 250.050781 209.167969 L 250.136719 209.441406 L 249.917969 209.765625 L 251.21875 212.207031 L 251.914062 217.957031 L 255.339844 225.28125 L 205 225.933594 L 204.957031 216.546875 L 189.824219 216.492188 L 189.824219 197.558594 Z M 189.824219 197.558594 " type="plot-point" id="nebraska" xlink:title="nebraska">
          <title>nebraska</title>
        </path>
      </a>
      <a xlink:title="nevada">
        <path style="fill-rule: nonzero; fill: rgb(0%,0%,100%); fill-opacity: 1;stroke-width: 0.75; stroke-linecap: round; stroke-linejoin: round; stroke: rgb(0%,0%,0%); stroke-opacity: 1;stroke-miterlimit: 10; " d="M 114.296875 254.46875 L 114.296875 254.46875 L 113.558594 263.527344 L 112.605469 263.636719 L 109.746094 262.550781 L 109.050781 264.289062 L 110.046875 272.207031 L 109.746094 272.371094 L 109.789062 273.183594 L 69.25 235.589844 L 69.164062 207 L 114.253906 207.054688 L 114.296875 254.46875 Z M 114.296875 254.46875 " type="plot-point" id="nevada" xlink:title="nevada">
          <title>nevada</title>
        </path>
      </a>
      <a xlink:title="new hampshire">
        <path style="fill-rule: nonzero; fill: rgb(0%,0%,100%); fill-opacity: 1;stroke-width: 0.75; stroke-linecap: round; stroke-linejoin: round; stroke: rgb(0%,0%,0%); stroke-opacity: 1;stroke-miterlimit: 10; " d="M 428.855469 200.164062 L 428.855469 200.164062 L 428.636719 197.9375 L 430.632812 190.558594 L 432.757812 185.027344 L 435.835938 182.476562 L 435.53125 180.578125 L 436.179688 178.570312 L 437.613281 175.859375 L 438.261719 176.074219 L 439.128906 175.804688 L 440.214844 192.023438 L 441.082031 195.007812 L 441.730469 197.882812 L 438.523438 199.890625 L 428.855469 200.164062 Z M 428.855469 200.164062 " type="plot-point" id="new hampshire" xlink:title="new hampshire">
          <title>new hampshire</title>
        </path>
      </a>
      <a xlink:title="new jersey">
        <path style="fill-rule: nonzero; fill: rgb(0%,0%,100%); fill-opacity: 1;stroke-width: 0.75; stroke-linecap: round; stroke-linejoin: round; stroke: rgb(0%,0%,0%); stroke-opacity: 1;stroke-miterlimit: 10; " d="M 411.816406 213.074219 L 411.816406 213.074219 L 418.058594 216.601562 L 415.328125 221.59375 L 417.625 222.296875 L 416.757812 225.824219 L 414.71875 230.488281 L 410.125 236.132812 L 410.339844 233.90625 L 406.742188 232.0625 L 405.789062 229.078125 L 411.511719 224.738281 L 408.648438 220.5625 L 409.039062 217.253906 L 411.816406 213.074219 Z M 411.816406 213.074219 " type="plot-point" id="new jersey" xlink:title="new jersey">
          <title>new jersey</title>
        </path>
      </a>
      <a xlink:title="new mexico">
        <path style="fill-rule: nonzero; fill: rgb(0%,0%,100%); fill-opacity: 1;stroke-width: 0.75; stroke-linecap: round; stroke-linejoin: round; stroke: rgb(0%,0%,0%); stroke-opacity: 1;stroke-miterlimit: 10; " d="M 197.804688 254.414062 L 197.804688 254.414062 L 197.28125 301.828125 L 183.886719 301.828125 L 175.171875 301.828125 L 172.222656 301.882812 L 170.402344 301.828125 L 171.007812 303.835938 L 158.347656 303.78125 L 158.261719 307.90625 L 156.179688 307.960938 L 153.1875 307.960938 L 152.019531 307.90625 L 152.148438 254.46875 L 157.046875 254.46875 L 197.804688 254.414062 Z M 197.804688 254.414062 " type="plot-point" id="new mexico" xlink:title="new mexico">
          <title>new mexico</title>
        </path>
      </a>
      <a xlink:title="new york">
        <path style="fill-rule: nonzero; fill: rgb(0%,0%,100%); fill-opacity: 1;stroke-width: 0.75; stroke-linecap: round; stroke-linejoin: round; stroke: rgb(0%,0%,0%); stroke-opacity: 1;stroke-miterlimit: 10; " d="M 417.839844 218.390625 L 417.839844 218.390625 L 417.148438 219.3125 L 417.105469 219.207031 L 417.839844 218.390625 Z M 417.839844 218.390625 " type="plot-point" id="new york:manhattan" xlink:title="new york"/>
      </a>
      <a xlink:title="new york">
        <path style="fill-rule: nonzero; fill: rgb(0%,0%,100%); fill-opacity: 1;stroke-width: 0.75; stroke-linecap: round; stroke-linejoin: round; stroke: rgb(0%,0%,0%); stroke-opacity: 1;stroke-miterlimit: 10; " d="M 373.660156 204.613281 L 373.660156 204.613281 L 380.554688 199.402344 L 379.339844 196.203125 L 379.6875 194.847656 L 389.398438 194.847656 L 396.8125 194.519531 L 399.542969 192.785156 L 400.542969 191.15625 L 400.195312 189.3125 L 400.933594 187.957031 L 400.152344 187.902344 L 399.542969 186.925781 L 403.75 183.453125 L 410.515625 178.734375 L 411.683594 178.734375 L 411.816406 178.734375 L 422.132812 178.570312 L 421.875 186.328125 L 421.65625 192.132812 L 422.265625 191.699219 L 422.828125 196.582031 L 421.699219 204.015625 L 421.09375 214.484375 L 419.402344 215.515625 L 419.664062 216.816406 L 418.015625 218.011719 L 418.058594 216.601562 L 410.816406 212.476562 L 409.257812 209.820312 L 407.566406 207.648438 L 373.746094 207.054688 L 373.660156 204.613281 Z M 373.660156 204.613281 " type="plot-point" id="new york:main" xlink:title="new york">
          <title>new york</title>
        </path>
      </a>
      <a xlink:title="new york">
        <path style="fill-rule: nonzero; fill: rgb(0%,0%,100%); fill-opacity: 1;stroke-width: 0.75; stroke-linecap: round; stroke-linejoin: round; stroke: rgb(0%,0%,0%); stroke-opacity: 1;stroke-miterlimit: 10; " d="M 415.195312 221.429688 L 415.195312 221.429688 L 416.582031 219.746094 L 415.066406 221.210938 L 415.328125 220.996094 L 415.195312 221.429688 Z M 415.195312 221.429688 " type="plot-point" id="new york:staten island" xlink:title="new york">
          <title>new york</title>
        </path>
      </a>
      <a xlink:title="new york">
        <path style="fill-rule: nonzero; fill: rgb(0%,0%,100%); fill-opacity: 1;stroke-width: 0.75; stroke-linecap: round; stroke-linejoin: round; stroke: rgb(0%,0%,0%); stroke-opacity: 1;stroke-miterlimit: 10; " d="M 428.679688 217.523438 L 428.679688 217.523438 L 431.324219 216.4375 L 433.191406 216.277344 L 425.039062 219.042969 L 418.96875 220.128906 L 418.316406 220.019531 L 418.101562 220.128906 L 417.710938 220.507812 L 417.539062 219.421875 L 423.609375 216.925781 L 425.125 216.980469 L 429.851562 215.191406 L 428.160156 217.035156 L 428.679688 217.523438 Z M 428.679688 217.523438 " type="plot-point" id="new york:long island" xlink:title="new york">
          <title>new york</title>
        </path>
      </a>
      <a xlink:title="north carolina">
        <path style="fill-rule: nonzero; fill: rgb(0%,0%,100%); fill-opacity: 1;stroke-width: 0.75; stroke-linecap: round; stroke-linejoin: round; stroke: rgb(0%,0%,0%); stroke-opacity: 1;stroke-miterlimit: 10; " d="M 402.96875 258.644531 L 402.96875 258.644531 L 405.484375 265.808594 L 402.96875 258.644531 Z M 402.96875 258.644531 " type="plot-point" id="north carolina:knotts" xlink:title="north carolina"/>
      </a>
      <a xlink:title="north carolina">
        <path style="fill-rule: nonzero; fill: rgb(0%,0%,100%); fill-opacity: 1;stroke-width: 0.75; stroke-linecap: round; stroke-linejoin: round; stroke: rgb(0%,0%,0%); stroke-opacity: 1;stroke-miterlimit: 10; " d="M 382.808594 284.089844 L 382.808594 284.089844 L 374.222656 275.191406 L 365.984375 275.082031 L 364.773438 272.261719 L 363.992188 272.316406 L 352.285156 272.046875 L 344.785156 273.457031 L 340.535156 273.566406 L 339.191406 273.402344 L 340.058594 271.070312 L 341.53125 269.875 L 344.699219 267.976562 L 349.855469 264.9375 L 352.070312 263.855469 L 356.925781 261.902344 L 358.703125 260.054688 L 359.4375 258.265625 L 401.972656 259.296875 L 402.96875 262.117188 L 402.40625 261.683594 L 401.191406 261.683594 L 401.453125 262.550781 L 400.84375 262.660156 L 400.324219 262.660156 L 399.15625 262.605469 L 397.808594 263.691406 L 396.855469 261.847656 L 396.8125 261.46875 L 397.03125 264.667969 L 402.015625 264.558594 L 401.367188 266.785156 L 402.277344 266.347656 L 402.277344 265.96875 L 403.011719 264.558594 L 403.921875 264.667969 L 404.140625 267.324219 L 401.710938 269.441406 L 399.199219 269.714844 L 398.242188 269.714844 L 398.632812 268.574219 L 397.375 268.140625 L 397.507812 268.953125 L 394.601562 268.574219 L 397.246094 270.472656 L 398.070312 270.417969 L 397.636719 271.9375 L 396.855469 273.128906 L 394.773438 272.644531 L 396.121094 274.054688 L 397.160156 274 L 397.722656 273.835938 L 397.898438 273.347656 L 398.503906 273.347656 L 399.109375 273.402344 L 399.847656 273.347656 L 397.765625 275.898438 L 393.863281 275.953125 L 392.78125 277.308594 L 391.695312 276.113281 L 391.480469 277.523438 L 390.613281 278.5 L 387.882812 282.789062 L 387.75 282.246094 L 387.316406 283.003906 L 382.808594 284.089844 Z M 382.808594 284.089844 " type="plot-point" id="north carolina:main" xlink:title="north carolina">
          <title>north carolina</title>
        </path>
      </a>
      <a xlink:title="north carolina">
        <path style="fill-rule: nonzero; fill: rgb(0%,0%,100%); fill-opacity: 1;stroke-width: 0.75; stroke-linecap: round; stroke-linejoin: round; stroke: rgb(0%,0%,0%); stroke-opacity: 1;stroke-miterlimit: 10; " d="M 402.144531 258.644531 L 402.144531 258.644531 L 402.839844 259.242188 L 402.621094 259.242188 L 402.144531 258.644531 Z M 402.144531 258.644531 " type="plot-point" id="north carolina:spit" xlink:title="north carolina"/>
      </a>
      <a xlink:title="north dakota">
        <path style="fill-rule: nonzero; fill: rgb(100%,0%,0%); fill-opacity: 1;stroke-width: 0.75; stroke-linecap: round; stroke-linejoin: round; stroke: rgb(0%,0%,0%); stroke-opacity: 1;stroke-miterlimit: 10; " d="M 189.914062 169.78125 L 189.914062 169.78125 L 189.914062 140.8125 L 241.550781 141.410156 L 242.203125 144.5 L 242.980469 150.957031 L 244.238281 153.667969 L 245.714844 165.441406 L 246.535156 169.238281 L 189.914062 169.78125 Z M 189.914062 169.78125 " type="plot-point" id="north dakota" xlink:title="north dakota">
          <title>north dakota</title>
        </path>
      </a>
      <a xlink:title="ohio">
        <path style="fill-rule: nonzero; fill: rgb(0%,0%,100%); fill-opacity: 1;stroke-width: 0.75; stroke-linecap: round; stroke-linejoin: round; stroke: rgb(0%,0%,0%); stroke-opacity: 1;stroke-miterlimit: 10; " d="M 367.980469 219.910156 L 367.980469 219.910156 L 366.808594 220.453125 L 366.679688 224.140625 L 364.945312 229.621094 L 361.261719 231.738281 L 358.660156 233.691406 L 357.75 236.402344 L 356.144531 235.480469 L 355.234375 238.519531 L 354.28125 240.527344 L 352.328125 240.6875 L 349.769531 237.757812 L 346.777344 238.898438 L 340.96875 237.433594 L 340.449219 237.269531 L 339.363281 235.480469 L 335.984375 234.234375 L 335.59375 209.820312 L 345.652344 210.089844 L 349.640625 211.445312 L 350.289062 211.339844 L 350.8125 211.339844 L 349.335938 212.207031 L 350.507812 212.097656 L 351.9375 212.316406 L 360.089844 210.851562 L 367.851562 207.378906 L 367.980469 219.910156 Z M 367.980469 219.910156 " type="plot-point" id="ohio" xlink:title="ohio">
          <title>ohio</title>
        </path>
      </a>
      <a xlink:title="oklahoma">
        <path style="fill-rule: nonzero; fill: rgb(100%,0%,0%); fill-opacity: 1;stroke-width: 0.75; stroke-linecap: round; stroke-linejoin: round; stroke: rgb(0%,0%,0%); stroke-opacity: 1;stroke-miterlimit: 10; " d="M 205.042969 254.414062 L 205.042969 254.414062 L 261.148438 254.304688 L 262.40625 275.734375 L 261.796875 286.042969 L 256.378906 283.222656 L 254.125 283.277344 L 247.621094 285.230469 L 245.582031 283.925781 L 244.152344 284.199219 L 243.328125 283.277344 L 242.636719 284.632812 L 242.503906 284.742188 L 242.417969 285.445312 L 241.855469 284.089844 L 240.292969 284.742188 L 238.734375 283.382812 L 236.953125 284.144531 L 234.917969 282.027344 L 231.621094 281.917969 L 227.417969 280.890625 L 226.332031 279.371094 L 223.773438 278.9375 L 220.957031 277.523438 L 220.523438 259.242188 L 197.847656 259.351562 L 197.804688 254.414062 L 198.714844 254.578125 L 205.042969 254.414062 Z M 205.042969 254.414062 " type="plot-point" id="oklahoma" xlink:title="oklahoma">
          <title>oklahoma</title>
        </path>
      </a>
      <a xlink:title="oregon">
        <path style="fill-rule: nonzero; fill: rgb(0%,0%,100%); fill-opacity: 1;stroke-width: 0.75; stroke-linecap: round; stroke-linejoin: round; stroke: rgb(0%,0%,0%); stroke-opacity: 1;stroke-miterlimit: 10; " d="M 92.445312 169.238281 L 92.445312 169.238281 L 95.957031 172.875 L 91.96875 180.847656 L 90.363281 184.972656 L 92.488281 186.980469 L 91.707031 191.15625 L 91.707031 207 L 40.113281 207 L 37.554688 207.054688 L 35.949219 202.875 L 35.691406 200.109375 L 34.910156 199.078125 L 38.074219 188.824219 L 38.855469 180.308594 L 39.03125 179.4375 L 39.59375 173.90625 L 39.507812 167.503906 L 40.761719 167.613281 L 41.414062 167.613281 L 42.367188 167.339844 L 47.179688 168.535156 L 48.179688 172.007812 L 50.433594 173.253906 L 54.855469 172.332031 L 60.40625 172.984375 L 77.097656 169.238281 L 92.445312 169.238281 Z M 92.445312 169.238281 " type="plot-point" id="oregon" xlink:title="oregon">
          <title>oregon</title>
        </path>
      </a>
      <a xlink:title="pennsylvania">
        <path style="fill-rule: nonzero; fill: rgb(0%,0%,100%); fill-opacity: 1;stroke-width: 0.75; stroke-linecap: round; stroke-linejoin: round; stroke: rgb(0%,0%,0%); stroke-opacity: 1;stroke-miterlimit: 10; " d="M 373.660156 204.613281 L 373.660156 204.613281 L 373.746094 207.054688 L 407.566406 207.648438 L 409.257812 209.820312 L 410.816406 212.476562 L 411.46875 213.347656 L 409.039062 217.253906 L 408.648438 220.5625 L 410.6875 223.109375 L 410.816406 223.273438 L 411.726562 224.46875 L 408.867188 226.421875 L 404.402344 227.941406 L 367.980469 228.644531 L 367.851562 207.378906 L 373.660156 204.613281 Z M 373.660156 204.613281 " type="plot-point" id="pennsylvania" xlink:title="pennsylvania">
          <title>pennsylvania</title>
        </path>
      </a>
      <a xlink:title="rhode island">
        <path style="fill-rule: nonzero; fill: rgb(0%,0%,100%); fill-opacity: 1;stroke-width: 0.75; stroke-linecap: round; stroke-linejoin: round; stroke: rgb(0%,0%,0%); stroke-opacity: 1;stroke-miterlimit: 10; " d="M 433.625 213.292969 L 433.625 213.292969 L 434.058594 207 L 437.09375 207.214844 L 438.003906 209.386719 L 439.171875 211.445312 L 438.261719 212.152344 L 438.21875 212.371094 L 438.046875 212.476562 L 437.394531 210.363281 L 436.484375 212.371094 L 433.625 213.292969 Z M 433.625 213.292969 " type="plot-point" id="rhode island" xlink:title="rhode island">
          <title>rhode island</title>
        </path>
      </a>
      <a xlink:title="south carolina">
        <path style="fill-rule: nonzero; fill: rgb(100%,0%,0%); fill-opacity: 1;stroke-width: 0.75; stroke-linecap: round; stroke-linejoin: round; stroke: rgb(0%,0%,0%); stroke-opacity: 1;stroke-miterlimit: 10; " d="M 348.382812 273.457031 L 348.382812 273.457031 L 355.101562 271.503906 L 363.90625 272.425781 L 366.03125 274.054688 L 365.984375 275.082031 L 374.355469 275.246094 L 382.546875 284.253906 L 377.648438 288.808594 L 377.34375 291.195312 L 372.921875 294.503906 L 372.402344 294.398438 L 371.320312 295.863281 L 368.152344 297.433594 L 368.285156 297.542969 L 368.285156 297.652344 L 367.632812 298.519531 L 366.117188 298.03125 L 365.941406 299.386719 L 366.507812 299.226562 L 364.597656 301.125 L 363.253906 299.605469 L 362.128906 296.511719 L 361.128906 293.800781 L 357.226562 288.648438 L 354.453125 284.847656 L 350.550781 279.53125 L 346.5625 276.441406 L 348.382812 273.457031 Z M 348.382812 273.457031 " type="plot-point" id="south carolina" xlink:title="south carolina">
          <title>south carolina</title>
        </path>
      </a>
      <a xlink:title="south dakota">
        <path style="fill-rule: nonzero; fill: rgb(100%,0%,0%); fill-opacity: 1;stroke-width: 0.75; stroke-linecap: round; stroke-linejoin: round; stroke: rgb(0%,0%,0%); stroke-opacity: 1;stroke-miterlimit: 10; " d="M 247.535156 202.605469 L 247.535156 202.605469 L 240.207031 199.023438 L 239.296875 199.023438 L 238.039062 199.242188 L 236.652344 199.1875 L 234.65625 199.457031 L 231.796875 197.667969 L 189.824219 197.558594 L 189.867188 178.625 L 189.914062 176.671875 L 189.914062 169.78125 L 235.871094 169.835938 L 241.550781 169.78125 L 246.582031 169.78125 L 244.5 172.550781 L 247.359375 175.316406 L 247.578125 192.949219 L 246.40625 192.894531 L 246.925781 194.414062 L 247.273438 195.550781 L 246.320312 199.730469 L 247.535156 202.605469 Z M 247.535156 202.605469 " type="plot-point" id="south dakota" xlink:title="south dakota">
          <title>south dakota</title>
        </path>
      </a>
      <a xlink:title="tennessee">
        <path style="fill-rule: nonzero; fill: rgb(100%,0%,0%); fill-opacity: 1;stroke-width: 0.75; stroke-linecap: round; stroke-linejoin: round; stroke: rgb(0%,0%,0%); stroke-opacity: 1;stroke-miterlimit: 10; " d="M 298.347656 263.855469 L 298.347656 263.855469 L 299.171875 262.117188 L 299.171875 261.46875 L 299.734375 258.808594 L 304.9375 259.132812 L 311.050781 258.589844 L 310.878906 257.507812 L 359.003906 258.644531 L 358.617188 260.652344 L 355.449219 262.550781 L 352.070312 263.855469 L 351.070312 263.855469 L 349.988281 265.101562 L 344.699219 267.976562 L 341.53125 269.875 L 340.058594 271.070312 L 339.191406 273.402344 L 294.101562 273.402344 L 295.574219 272.316406 L 294.835938 269.441406 L 295.703125 269.441406 L 296.875 267.054688 L 298.433594 264.777344 L 298.347656 263.855469 Z M 298.347656 263.855469 " type="plot-point" id="tennessee" xlink:title="tennessee">
          <title>tennessee</title>
        </path>
      </a>
      <a xlink:title="texas">
        <path style="fill-rule: nonzero; fill: rgb(100%,0%,0%); fill-opacity: 1;stroke-width: 0.75; stroke-linecap: round; stroke-linejoin: round; stroke: rgb(0%,0%,0%); stroke-opacity: 1;stroke-miterlimit: 10; " d="M 262.1875 285.988281 L 262.1875 285.988281 L 264.269531 286.53125 L 265.527344 286.855469 L 265.875 301.882812 L 267.261719 305.300781 L 269.386719 311 L 267.867188 317.671875 L 267.738281 320.546875 L 266.828125 322.824219 L 260.542969 325.699219 L 261.667969 324.453125 L 260.019531 324.617188 L 260.367188 322.445312 L 258.417969 323.152344 L 258.589844 326.894531 L 256.769531 329.28125 L 252.476562 332.210938 L 249.007812 333.351562 L 248.964844 332.808594 L 247.75 332.914062 L 246.925781 333.675781 L 245.84375 333.132812 L 246.625 334.597656 L 247.058594 335.628906 L 245.410156 336.226562 L 244.800781 335.628906 L 243.675781 338.230469 L 243.546875 337.796875 L 242.9375 338.015625 L 242.332031 338.015625 L 241.636719 337.90625 L 241.769531 341 L 239.121094 340.945312 L 240.511719 342.464844 L 239.554688 346.152344 L 239.382812 345.554688 L 237.953125 345.71875 L 237.476562 345.394531 L 238.34375 346.75 L 239.816406 347.238281 L 239.167969 350.65625 L 241.335938 357.492188 L 241.898438 358.46875 L 238.601562 358.792969 L 232.273438 356.679688 L 232.230469 356.460938 L 227.761719 354.671875 L 225.507812 349.949219 L 224.292969 344.851562 L 219.527344 338.230469 L 215.535156 330.582031 L 212.414062 325.917969 L 210.03125 323.152344 L 203.742188 322.226562 L 201.054688 322.988281 L 199.148438 326.242188 L 196.851562 330.421875 L 187.398438 325.15625 L 185.011719 319.949219 L 182.585938 314.417969 L 171.574219 304.21875 L 170.402344 301.828125 L 172.222656 301.882812 L 175.171875 301.828125 L 183.886719 301.828125 L 197.28125 301.828125 L 197.5 259.351562 L 204.21875 259.242188 L 212.414062 259.296875 L 213.410156 259.242188 L 220.523438 259.242188 L 220.566406 277.523438 L 222.386719 278.71875 L 225.207031 278.664062 L 226.59375 280.507812 L 231.621094 281.917969 L 232.707031 281.484375 L 234.308594 281.703125 L 235.351562 282.84375 L 236.042969 284.089844 L 237.691406 283.277344 L 239.816406 284.414062 L 241.289062 283.765625 L 241.984375 285.5 L 243.328125 283.277344 L 244.152344 284.199219 L 245.582031 283.925781 L 247.621094 285.230469 L 254.125 283.277344 L 256.378906 283.222656 L 262.1875 285.988281 Z M 262.1875 285.988281 " type="plot-point" id="texas" xlink:title="texas">
          <title>texas</title>
        </path>
      </a>
      <a xlink:title="utah">
        <path style="fill-rule: nonzero; fill: rgb(100%,0%,0%); fill-opacity: 1;stroke-width: 0.75; stroke-linecap: round; stroke-linejoin: round; stroke: rgb(0%,0%,0%); stroke-opacity: 1;stroke-miterlimit: 10; " d="M 114.253906 207.054688 L 114.253906 207.054688 L 136.929688 207.105469 L 136.886719 216.601562 L 152.0625 216.601562 L 152.148438 254.46875 L 142.566406 254.414062 L 114.296875 254.46875 L 114.253906 207.054688 Z M 114.253906 207.054688 " type="plot-point" id="utah" xlink:title="utah">
          <title>utah</title>
        </path>
      </a>
      <a xlink:title="vermont">
        <path style="fill-rule: nonzero; fill: rgb(0%,0%,100%); fill-opacity: 1;stroke-width: 0.75; stroke-linecap: round; stroke-linejoin: round; stroke: rgb(0%,0%,0%); stroke-opacity: 1;stroke-miterlimit: 10; " d="M 422.132812 178.570312 L 422.132812 178.570312 L 435.878906 178.84375 L 435.703125 182.097656 L 433.449219 184.972656 L 432.0625 186.601562 L 429.027344 195.496094 L 428.421875 199.566406 L 422.742188 200.054688 L 422.914062 193.976562 L 422.089844 191.808594 L 421.875 186.328125 L 422.132812 178.570312 Z M 422.132812 178.570312 " type="plot-point" id="vermont" xlink:title="vermont">
          <title>vermont</title>
        </path>
      </a>
      <a xlink:title="virginia">
        <path style="fill-rule: nonzero; fill: rgb(0%,0%,100%); fill-opacity: 1;stroke-width: 0.75; stroke-linecap: round; stroke-linejoin: round; stroke: rgb(0%,0%,0%); stroke-opacity: 1;stroke-miterlimit: 10; " d="M 404.878906 245.300781 L 404.878906 245.300781 L 406.570312 245.246094 L 402.363281 253.167969 L 402.101562 252.40625 L 402.058594 251.972656 L 404.878906 245.300781 Z M 404.878906 245.300781 " type="plot-point" id="virginia:chesapeake" xlink:title="virginia">
          <title>virginia</title>
        </path>
      </a>
      <a xlink:title="virginia">
        <path style="fill-rule: nonzero; fill: rgb(0%,0%,100%); fill-opacity: 1;stroke-width: 0.75; stroke-linecap: round; stroke-linejoin: round; stroke: rgb(0%,0%,0%); stroke-opacity: 1;stroke-miterlimit: 10; " d="M 407.652344 244.59375 L 407.652344 244.59375 L 407.003906 246.386719 L 407.652344 244.59375 Z M 407.652344 244.59375 " type="plot-point" id="virginia:chincoteague" xlink:title="virginia"/>
      </a>
      <a xlink:title="virginia">
        <path style="fill-rule: nonzero; fill: rgb(0%,0%,100%); fill-opacity: 1;stroke-width: 0.75; stroke-linecap: round; stroke-linejoin: round; stroke: rgb(0%,0%,0%); stroke-opacity: 1;stroke-miterlimit: 10; " d="M 389.183594 232.386719 L 389.183594 232.386719 L 390.785156 233.636719 L 394.125 237.597656 L 392.21875 241.449219 L 394.296875 242.042969 L 400.109375 246.546875 L 399.15625 248.445312 L 395.511719 245.570312 L 399.242188 249.097656 L 399.328125 249.421875 L 399.023438 249.640625 L 400.066406 251.105469 L 398.851562 251.105469 L 398.894531 252.027344 L 396.507812 250.453125 L 400.023438 254.195312 L 398.9375 254.683594 L 396.121094 252.242188 L 395.253906 252.082031 L 395.902344 252.570312 L 398.503906 255.5 L 399.847656 255.335938 L 401.625 255.335938 L 403.1875 258.265625 L 402.320312 258.375 L 344.394531 258.210938 L 345.824219 257.613281 L 350.289062 254.792969 L 357.183594 249.75 L 358.746094 252.136719 L 361.304688 251.539062 L 361.996094 251.703125 L 365.507812 251.160156 L 367.675781 250.074219 L 368.285156 250.34375 L 369.800781 248.390625 L 374.398438 239.496094 L 377.085938 241.015625 L 379.035156 237.378906 L 380.46875 237.703125 L 382.503906 235.589844 L 384.328125 231.628906 L 388.183594 234.125 L 389.183594 232.386719 Z M 389.183594 232.386719 " type="plot-point" id="virginia:main" xlink:title="virginia">
          <title>virginia</title>
        </path>
      </a>
      <a xlink:title="washington">
        <path style="fill-rule: nonzero; fill: rgb(0%,0%,100%); fill-opacity: 1;stroke-width: 0.75; stroke-linecap: round; stroke-linejoin: round; stroke: rgb(0%,0%,0%); stroke-opacity: 1;stroke-miterlimit: 10; " d="M 46.355469 144.882812 L 46.355469 144.882812 L 45.792969 144.773438 L 46.183594 145.75 L 46.445312 145.75 L 46.355469 144.882812 Z M 46.355469 144.882812 " type="plot-point" id="washington:san juan island" xlink:title="washington">
          <title>washington</title>
        </path>
      </a>
      <a xlink:title="washington">
        <path style="fill-rule: nonzero; fill: rgb(0%,0%,100%); fill-opacity: 1;stroke-width: 0.75; stroke-linecap: round; stroke-linejoin: round; stroke: rgb(0%,0%,0%); stroke-opacity: 1;stroke-miterlimit: 10; " d="M 47.832031 146.453125 L 47.832031 146.453125 L 47.746094 145.152344 L 47.832031 146.453125 Z M 47.832031 146.453125 " type="plot-point" id="washington:lopez island" xlink:title="washington"/>
      </a>
      <a xlink:title="washington">
        <path style="fill-rule: nonzero; fill: rgb(0%,0%,100%); fill-opacity: 1;stroke-width: 0.75; stroke-linecap: round; stroke-linejoin: round; stroke: rgb(0%,0%,0%); stroke-opacity: 1;stroke-miterlimit: 10; " d="M 48.265625 144.5 L 48.265625 144.5 L 47.746094 143.523438 L 46.878906 144.175781 L 46.921875 144.609375 L 47.613281 144.230469 L 48.265625 144.5 Z M 48.265625 144.5 " type="plot-point" id="washington:orcas island" xlink:title="washington">
          <title>washington</title>
        </path>
      </a>
      <a xlink:title="washington">
        <path style="fill-rule: nonzero; fill: rgb(0%,0%,100%); fill-opacity: 1;stroke-width: 0.75; stroke-linecap: round; stroke-linejoin: round; stroke: rgb(0%,0%,0%); stroke-opacity: 1;stroke-miterlimit: 10; " d="M 49 148.625 L 49 148.625 L 49.390625 146.726562 L 49.910156 147.59375 L 49.476562 148.246094 L 50.34375 149.980469 L 50.519531 149.980469 L 51.644531 150.792969 L 49 148.625 Z M 49 148.625 " type="plot-point" id="washington:whidbey island" xlink:title="washington">
          <title>washington</title>
        </path>
      </a>
      <a xlink:title="washington">
        <path style="fill-rule: nonzero; fill: rgb(0%,0%,100%); fill-opacity: 1;stroke-width: 0.75; stroke-linecap: round; stroke-linejoin: round; stroke: rgb(0%,0%,0%); stroke-opacity: 1;stroke-miterlimit: 10; " d="M 92.445312 169.238281 L 92.445312 169.238281 L 77.097656 169.238281 L 60.40625 172.984375 L 54.855469 172.332031 L 50.433594 173.253906 L 48.179688 172.007812 L 47.179688 168.535156 L 43.796875 167.394531 L 38.8125 165.714844 L 39.160156 163.816406 L 39.722656 165.605469 L 39.984375 162.785156 L 38.507812 161.375 L 38.726562 161.046875 L 40.027344 159.746094 L 38.597656 159.3125 L 38.117188 159.855469 L 35.128906 151.609375 L 33.957031 148.082031 L 34.128906 146.5625 L 44.363281 149.167969 L 47.832031 150.035156 L 48.351562 149.601562 L 49 150.089844 L 49.304688 149.546875 L 49.132812 151.988281 L 48.480469 152.097656 L 47.832031 152.042969 L 47.484375 153.34375 L 46.878906 153.777344 L 45.621094 156.4375 L 47.265625 156.21875 L 46.140625 156.164062 L 50.042969 151.609375 L 50.648438 151.878906 L 49.566406 153.128906 L 49.132812 154.59375 L 50.171875 154.429688 L 50.085938 156.492188 L 49.304688 157.035156 L 48.742188 157.738281 L 48.394531 156.707031 L 46.53125 157.792969 L 46.789062 158.496094 L 47.441406 159.472656 L 47.65625 158.550781 L 48.566406 158.605469 L 50.390625 157.25 L 50.910156 157.304688 L 51.644531 156.492188 L 51.210938 153.507812 L 52.644531 150.414062 L 51.644531 148.679688 L 49.21875 145.75 L 50.257812 145.859375 L 50.734375 143.742188 L 49.609375 143.46875 L 48.742188 141.625 L 53.378906 140.867188 L 91.75 140.867188 L 91.664062 157.359375 L 92.445312 169.238281 Z M 92.445312 169.238281 " type="plot-point" id="washington:main" xlink:title="washington">
          <title>washington</title>
        </path>
      </a>
      <a xlink:title="west virginia">
        <path style="fill-rule: nonzero; fill: rgb(100%,0%,0%); fill-opacity: 1;stroke-width: 0.75; stroke-linecap: round; stroke-linejoin: round; stroke: rgb(0%,0%,0%); stroke-opacity: 1;stroke-miterlimit: 10; " d="M 375.699219 228.644531 L 375.699219 228.644531 L 376 233.308594 L 381.421875 230.054688 L 383.761719 229.945312 L 386.710938 229.621094 L 388.054688 230.328125 L 388.878906 232.875 L 388.183594 234.125 L 384.328125 231.628906 L 382.503906 235.589844 L 380.46875 237.703125 L 379.035156 237.378906 L 377.085938 241.015625 L 374.398438 239.496094 L 369.800781 248.390625 L 368.285156 250.34375 L 367.675781 250.074219 L 366.074219 250.886719 L 365.207031 250.941406 L 361.996094 251.703125 L 360.046875 252.515625 L 357.183594 250.453125 L 356.273438 249.316406 L 352.589844 244.269531 L 352.328125 241.554688 L 354.28125 240.527344 L 355.234375 238.519531 L 356.144531 235.480469 L 357.75 236.402344 L 358.660156 233.691406 L 361.261719 231.738281 L 364.945312 229.621094 L 366.679688 224.140625 L 366.808594 220.453125 L 367.675781 219.964844 L 367.980469 228.644531 L 375.699219 228.644531 Z M 375.699219 228.644531 " type="plot-point" id="west virginia" xlink:title="west virginia">
          <title>west virginia</title>
        </path>
      </a>
      <a xlink:title="wisconsin">
        <path style="fill-rule: nonzero; fill: rgb(0%,0%,100%); fill-opacity: 1;stroke-width: 0.75; stroke-linecap: round; stroke-linejoin: round; stroke: rgb(0%,0%,0%); stroke-opacity: 1;stroke-miterlimit: 10; " d="M 312.875 202.332031 L 312.875 202.332031 L 305.503906 202.332031 L 304.246094 202.386719 L 291.195312 201.683594 L 288.117188 199.621094 L 287.597656 196.039062 L 288.117188 194.792969 L 286.597656 191.101562 L 285.644531 188.390625 L 281.785156 185.027344 L 275.023438 181.011719 L 275.890625 174.828125 L 274.242188 172.601562 L 277.015625 169.402344 L 278.882812 167.773438 L 279.011719 162.945312 L 281.308594 162.785156 L 290.542969 160.832031 L 289.632812 163.761719 L 291.410156 163.21875 L 295.183594 165.496094 L 303.507812 168.046875 L 303.855469 168.261719 L 310.53125 170.488281 L 312.613281 171.84375 L 312.398438 175.371094 L 313.308594 175.261719 L 313.351562 176.402344 L 314.175781 177.648438 L 313.480469 178.894531 L 311.007812 182.800781 L 313.699219 181.011719 L 316.082031 179.492188 L 318.769531 175.914062 L 316.992188 180.089844 L 314.609375 186.761719 L 312.484375 193.976562 L 312.875 202.332031 Z M 312.875 202.332031 " type="plot-point" id="wisconsin" xlink:title="wisconsin">
          <title>wisconsin</title>
        </path>
      </a>
      <a xlink:title="wyoming">
        <path style="fill-rule: nonzero; fill: rgb(100%,0%,0%); fill-opacity: 1;stroke-width: 0.75; stroke-linecap: round; stroke-linejoin: round; stroke: rgb(0%,0%,0%); stroke-opacity: 1;stroke-miterlimit: 10; " d="M 152.0625 216.601562 L 152.0625 216.601562 L 136.886719 216.601562 L 136.972656 178.734375 L 175.820312 178.625 L 177.46875 178.625 L 182.5 178.625 L 189.867188 178.625 L 189.824219 216.492188 L 152.0625 216.601562 Z M 152.0625 216.601562 " type="plot-point" id="wyoming" xlink:title="wyoming">
          <title>wyoming</title>
        </path>
      </a>
      <a xlink:title="district of columbia">
        <rect x="393.5625" y="236.023438" width="1.55859400000003" height="1.300781" class="tooltip">
          <title>district of columbia</title>
        </rect>
      </a>
      <a xlink:title="new york">
        <rect x="417.105469" y="218.390625" width="0.734375" height="0.921875" class="tooltip">
          <title>new york</title>
        </rect>
      </a>
      <a xlink:title="north carolina">
        <rect x="402.96875" y="258.644531" width="2.515625" height="7.16406300000006" class="tooltip">
          <title>north carolina</title>
        </rect>
      </a>
      <a xlink:title="north carolina">
        <rect x="402.144531" y="258.644531" width="0.695313000000056" height="0.597657000000027" class="tooltip">
          <title>north carolina</title>
        </rect>
      </a>
      <a xlink:title="virginia">
        <rect x="407.003906" y="244.59375" width="0.648438000000056" height="1.792969" class="tooltip">
          <title>virginia</title>
        </rect>
      </a>
      <a xlink:title="washington">
        <rect x="47.746094" y="145.152344" width="0.0859370000000013" height="1.300781" class="tooltip">
          <title>washington</title>
        </rect>
      </a>
    </g>
  </g>
</svg>
